<svg id="Слой_1" data-name="Слой 1" xmlns="http://www.w3.org/2000/svg" width="39.67" height="35" viewBox="0 0 39.67 35">
  <defs>
    <style>
      .cls-1 {
        fill: #ffde97;
      }

      .cls-2 {
        fill: #fff;
      }

      .cls-3 {
        fill: #faa413;
      }

      .cls-4 {
        fill: #ff2a4b;
      }

      .cls-5 {
        fill: #ffd223;
      }

      .cls-6 {
        fill: #641e0a;
      }

      .cls-7 {
        fill: #ff7081;
      }

      .cls-8 {
        fill: #e77700;
      }
    </style>
  </defs>
  <ellipse class="cls-1" cx="17.02" cy="19.19" rx="15.64" ry="15.81"/>
  <path class="cls-2" d="M34,20a.85.85,0,0,1,.43-.5.53.53,0,0,1,.6.13,1.2,1.2,0,0,1,.15.37,2.5,2.5,0,0,0,.74,1.17,1,1,0,0,1,.38.45.65.65,0,0,1,0,.39.69.69,0,0,1-.16.29.58.58,0,0,1-.62.1A1.8,1.8,0,0,1,34.9,22l-.4-.35a2.49,2.49,0,0,1-.42-.44A1.35,1.35,0,0,1,34,20Z" transform="translate(-0.16 -2)"/>
  <path class="cls-3" d="M17.87,18.57c0-.11,0,0,0,0h0Z" transform="translate(-0.16 -2)"/>
  <polygon class="cls-3" points="17.71 16.59 17.71 16.6 17.71 16.6 17.71 16.59"/>
  <polygon class="cls-4" points="17.97 4.03 17.45 3.12 16.89 4 17.43 4.87 17.97 4.03"/>
  <path class="cls-4" d="M14.64,27.56a3.16,3.16,0,0,0,2.37,1,3.09,3.09,0,0,0,2.39-.79,3.22,3.22,0,0,0,.8-2L14,25.49A3.21,3.21,0,0,0,14.64,27.56Z" transform="translate(-0.16 -2)"/>
  <path class="cls-1" d="M3,28.81a1.73,1.73,0,0,1-.33.17c-.25.2-.56.54-.53.72s.06.1.15.14l0,0a1.07,1.07,0,0,1,.38-.35A.64.64,0,0,0,3,28.81Z" transform="translate(-0.16 -2)"/>
  <path class="cls-2" d="M3.89,26.43a1.26,1.26,0,0,1-.07.49.19.19,0,0,1-.24.13.2.2,0,0,1-.13-.25.85.85,0,0,0,0-.61A.34.34,0,0,0,3.18,26a.61.61,0,0,0-.5.24A2.48,2.48,0,0,0,2,28.16c0,.19.11.43.32.47a.61.61,0,0,0,.19,0,.21.21,0,0,1,.1,0A1.21,1.21,0,0,0,3.19,28,.19.19,0,0,1,3.45,28a.2.2,0,0,1,.07.27,1.31,1.31,0,0,1-.19.27h0a1.09,1.09,0,0,1-.43,1.35.51.51,0,0,0-.31.53c.05.16.22.24.47.23a1.52,1.52,0,0,1,.35-.3c.42-.29.71-.54.58-1.07A.21.21,0,0,1,4.14,29a.2.2,0,0,1,.23.15,1.35,1.35,0,0,1-.74,1.48,1.69,1.69,0,0,0-.26.22.32.32,0,0,0,.11.28c.09.09.38.29,1,.07a1.74,1.74,0,0,0,.94-1,2.65,2.65,0,0,0-.08-2.15A2.88,2.88,0,0,0,3.89,26.43Z" transform="translate(-0.16 -2)"/>
  <path class="cls-2" d="M35.52,19.33c0,.13.18.22.38.25a1.64,1.64,0,0,0,1.49-.91c.45-.69.46-1.35.21-1.6s-.59-.15-1.07.17A2.17,2.17,0,0,0,35.52,19.33Z" transform="translate(-0.16 -2)"/>
  <path class="cls-5" d="M21,9.36l.18.09.95-4.71L19.75,6.09A.21.21,0,0,1,19.48,6L17.62,2.6,15.75,5.87a.19.19,0,0,1-.26.07l-2.28-1.2L14,8.6l.07,0C17,7.45,19.06,8.42,21,9.36ZM16.67,5.89l.79-1.25a.2.2,0,0,1,.17-.09.23.23,0,0,1,.17.1l.73,1.28a.2.2,0,0,1,0,.21l-.77,1.2a.19.19,0,0,1-.16.09h0a.22.22,0,0,1-.16-.09L16.66,6.1A.18.18,0,0,1,16.67,5.89Z" transform="translate(-0.16 -2)"/>
  <path class="cls-2" d="M39,19.63h0s0,0,0,0a2.24,2.24,0,0,1-1.84,1.39h0c0,.07-.15.23-.12.33s.19.17.42.21a1.6,1.6,0,0,0,1.91-1,1,1,0,0,0,0-.83A.36.36,0,0,0,39,19.63Z" transform="translate(-0.16 -2)"/>
  <path class="cls-3" d="M30.16,19.57a33.85,33.85,0,0,1-1.39-3.32c-1-2.77-1.93-5.17-4.29-5.34a10.36,10.36,0,0,1-3.62-1.19C19,8.81,17,7.88,14.17,8.94c-3.36,1.26-6.83,2.55-7.94,6.17a23.47,23.47,0,0,1-1.23,3c-1,2.21-1.92,4.11-.63,6.55.46.88.86,1.83,1.24,2.75,1.16,2.81,2.25,5.46,5.2,5.75a21.32,21.32,0,0,1,4.11.92c2.16.65,4,1.2,5.83.22a19.77,19.77,0,0,1,2.92-1.18c2.48-.85,5-1.73,5.13-4.25A10.15,10.15,0,0,1,29.88,25C30.64,23.3,31.29,21.8,30.16,19.57ZM19.67,28a3.39,3.39,0,0,1-2.67.9,3.48,3.48,0,0,1-2.66-1.11,3.61,3.61,0,0,1-.76-2.54.2.2,0,0,1,.2-.18l6.63.24a.18.18,0,0,1,.18.19A3.59,3.59,0,0,1,19.67,28Zm8.89-10.16a.65.65,0,0,1-.67.63H27.7A5.32,5.32,0,0,1,28,20.57,5.17,5.17,0,1,1,17.7,20.2,5,5,0,0,1,18,18.79c0-.07-.05-.13-.07-.19h0a.28.28,0,0,1-.05-.09v0l-.11-.13,0,0-.13-.09,0,0-.1,0-.27-.08-.12,0h0l-.27,0h-.19l-.22.06,0,0h0a5.34,5.34,0,0,1,.33,2,5.18,5.18,0,1,1-9.85-2.43H6.55a.66.66,0,0,1-.62-.68V17a.66.66,0,0,1,.67-.63l.82,0a.41.41,0,0,1,.16,0,5.13,5.13,0,0,1,8,.53,2.64,2.64,0,0,1,1.21-.33,3.06,3.06,0,0,1,1.62.41,1.37,1.37,0,0,1,.29.2,5.14,5.14,0,0,1,8.18-.11.68.68,0,0,1,.2,0l.81,0a.65.65,0,0,1,.63.68Z" transform="translate(-0.16 -2)"/>
  <path class="cls-2" d="M36.19,20a.59.59,0,0,0,.44.67,1.79,1.79,0,0,0,2-1.12,1,1,0,0,0,0-.77,1.31,1.31,0,0,0-.61-.59,3.14,3.14,0,0,1-.34.72A2.19,2.19,0,0,1,36.19,20Z" transform="translate(-0.16 -2)"/>
  <polygon class="cls-6" points="17.71 16.59 17.71 16.6 17.71 16.59 17.71 16.59"/>
  <ellipse class="cls-5" cx="11.22" cy="17.97" rx="4.13" ry="4.18"/>
  <ellipse class="cls-5" cx="22.71" cy="18.38" rx="4.13" ry="4.18"/>
  <path class="cls-6" d="M39.65,19.47a.66.66,0,0,0-.53-.23,1.43,1.43,0,0,0-.09-.65,1.86,1.86,0,0,0-.89-.83,1.16,1.16,0,0,0-.27-1c-.16-.17-.64-.49-1.55.12a2,2,0,0,0-.32.25,3.18,3.18,0,0,0-.86-2.81,1,1,0,0,0-1.18,0c-1.17.83-.3,3.14-.08,3.68a2.72,2.72,0,0,0-.38,2.11,1.6,1.6,0,0,0-.78.95,1.68,1.68,0,0,0,.37,1.39,1,1,0,0,0,.11.15,8.69,8.69,0,0,1-1.43,2.29,1.79,1.79,0,0,1-1.53.25c.77-1.74,1.48-3.4.27-5.78a32,32,0,0,1-1.37-3.28c-1-2.78-2-5.4-4.63-5.59a8.64,8.64,0,0,1-2.94-.9l1.05-5.21a.19.19,0,0,0-.07-.2.2.2,0,0,0-.21,0L19.73,5.65,17.79,2.1a.19.19,0,0,0-.17-.1.21.21,0,0,0-.17.1L15.51,5.51,13,4.2a.18.18,0,0,0-.21,0,.18.18,0,0,0-.07.19l.84,4.33C10.28,10,7,11.36,5.85,15a22.28,22.28,0,0,1-1.2,2.94,12.53,12.53,0,0,0-1.27,3.58c-.74.37-2.91,1.6-3.2,3.18-.2,1.11,1.15,2.17,1.54,2.46a2.29,2.29,0,0,0-.12,1.06.89.89,0,0,0,.51.76,1.1,1.1,0,0,0-.35.78.58.58,0,0,0,.4.45h0a.7.7,0,0,0,0,.29A.75.75,0,0,0,3,31H3a.77.77,0,0,0,.21.41,1,1,0,0,0,.7.28,1.61,1.61,0,0,0,.67-.12,2.15,2.15,0,0,0,1.17-1.23A2.9,2.9,0,0,0,6,29.23c1,2.23,2.25,4.07,4.81,4.32l.67.08a4.15,4.15,0,0,1,1.28.3,3.66,3.66,0,0,1,1.29.46l.19,0h0l.27.09.12,0h0l.26.05h0l.06,0a2.78,2.78,0,0,1,.38.12l0,0a2.7,2.7,0,0,1,.43.12c.46,0,.92.1,1.38.17l.66.11,1.8-.1a2.58,2.58,0,0,1,.42-.1l.13-.06a4.83,4.83,0,0,1,.56-.27,3.86,3.86,0,0,1,1.16-.46,3.56,3.56,0,0,1,.49-.19c.45-.17.91-.33,1.38-.49,2.6-.9,5.29-1.82,5.39-4.62a7.93,7.93,0,0,1,.57-2.57A2.15,2.15,0,0,0,32,26.16a4.53,4.53,0,0,0,1.89-2.8,1.73,1.73,0,0,0,1,.4h0a1.71,1.71,0,0,0,1.34-.68.18.18,0,0,0,0-.1.91.91,0,0,0,.23,0A2,2,0,0,0,37.72,22v0h0a1.89,1.89,0,0,0,2-1.35C39.93,20,39.8,19.64,39.65,19.47ZM13.21,4.74l2.28,1.2a.19.19,0,0,0,.26-.07L17.62,2.6,19.48,6a.21.21,0,0,0,.27.08l2.41-1.35-.95,4.71L21,9.36c-2-.94-4-1.91-7-.79L14,8.6ZM1.63,24.59c0-.66,1.28-1.29,1.77-1.52A6,6,0,0,0,4,24.84c.31.58.59,1.2.85,1.83a2.1,2.1,0,0,0-1-.65.2.2,0,0,0-.11,0l0-.06a.74.74,0,0,0-.52-.34,1,1,0,0,0-.83.33A1.89,1.89,0,0,1,1.63,24.59Zm.71,5.27,0,0c-.09,0-.14-.08-.15-.14s.28-.52.53-.72A1.73,1.73,0,0,0,3,28.81a.64.64,0,0,1-.29.7A1.07,1.07,0,0,0,2.34,29.86Zm3,.34a1.74,1.74,0,0,1-.94,1c-.58.22-.87,0-1-.07a.32.32,0,0,1-.11-.28,1.69,1.69,0,0,1,.26-.22,1.35,1.35,0,0,0,.74-1.48A.2.2,0,0,0,4.14,29a.21.21,0,0,0-.15.24c.13.53-.16.78-.58,1.07a1.52,1.52,0,0,0-.35.3c-.25,0-.42-.07-.47-.23a.51.51,0,0,1,.31-.53,1.09,1.09,0,0,0,.43-1.35h0a1.31,1.31,0,0,0,.19-.27A.2.2,0,0,0,3.45,28a.19.19,0,0,0-.26.07,1.21,1.21,0,0,1-.59.54.21.21,0,0,0-.1,0,.61.61,0,0,1-.19,0c-.21,0-.29-.28-.32-.47a2.48,2.48,0,0,1,.69-1.89.61.61,0,0,1,.5-.24.34.34,0,0,1,.26.16.85.85,0,0,1,0,.61.2.2,0,0,0,.13.25.19.19,0,0,0,.24-.13,1.26,1.26,0,0,0,.07-.49A2.88,2.88,0,0,1,5.3,28.05,2.65,2.65,0,0,1,5.38,30.2ZM28.8,28.87c-.08,2.52-2.65,3.4-5.13,4.25a19.77,19.77,0,0,0-2.92,1.18c-1.8,1-3.67.43-5.83-.22a21.32,21.32,0,0,0-4.11-.92c-2.95-.29-4-2.94-5.2-5.75-.38-.92-.78-1.87-1.24-2.75C3.08,22.22,4,20.32,5,18.11a23.47,23.47,0,0,0,1.23-3c1.11-3.62,4.58-4.91,7.94-6.17C17,7.88,19,8.81,20.86,9.72a10.36,10.36,0,0,0,3.62,1.19c2.36.17,3.25,2.57,4.29,5.34a33.85,33.85,0,0,0,1.39,3.32c1.13,2.23.48,3.73-.28,5.47A10.15,10.15,0,0,0,28.8,28.87Zm9.26-10.71a1.31,1.31,0,0,1,.61.59,1,1,0,0,1,0,.77,1.79,1.79,0,0,1-2,1.12.59.59,0,0,1-.44-.67,2.19,2.19,0,0,0,1.53-1.09A3.14,3.14,0,0,0,38.06,18.16Zm-1.53-.92c.48-.32.87-.38,1.07-.17s.24.91-.21,1.6a1.64,1.64,0,0,1-1.49.91c-.2,0-.35-.12-.38-.25A2.17,2.17,0,0,1,36.53,17.24Zm-.12,5.33A1.7,1.7,0,0,1,35,22.09a.19.19,0,0,0-.27,0,.18.18,0,0,0,0,.27,2.6,2.6,0,0,0,1,.54,1.27,1.27,0,0,1-.91.43h0c-.47,0-1-.4-1.48-1.12a1.28,1.28,0,0,1-.3-1.06,1.23,1.23,0,0,1,.49-.65,2.82,2.82,0,0,0,.16.44.21.21,0,0,0,.17.12l.08,0a.2.2,0,0,0,.1-.26,2.83,2.83,0,0,1,.16-2.64.2.2,0,0,0,0-.2c-.32-.71-1-2.7-.1-3.3a.56.56,0,0,1,.73,0,3,3,0,0,1,.61,2.88.16.16,0,0,0,0,.15,2.26,2.26,0,0,0-.39,1.76.79.79,0,0,0,.65.51A1,1,0,0,0,36.53,21l.18,0a.65.65,0,0,0,0,.46.77.77,0,0,0,.63.44A1.56,1.56,0,0,1,36.41,22.57Zm3-2a1.6,1.6,0,0,1-1.91,1c-.23,0-.39-.12-.42-.21s.07-.26.12-.33h0A2.24,2.24,0,0,0,39,19.67s0,0,0,0h0a.36.36,0,0,1,.33.1A1,1,0,0,1,39.37,20.56Z" transform="translate(-0.16 -2)"/>
  <path class="cls-6" d="M20.41,25.33l-6.63-.24a.2.2,0,0,0-.2.18,3.61,3.61,0,0,0,.76,2.54A3.48,3.48,0,0,0,17,28.92a3.39,3.39,0,0,0,2.67-.9,3.59,3.59,0,0,0,.92-2.5A.18.18,0,0,0,20.41,25.33Zm-1,2.41a3.09,3.09,0,0,1-2.39.79,3.16,3.16,0,0,1-2.37-1A3.21,3.21,0,0,1,14,25.49l6.24.23A3.22,3.22,0,0,1,19.4,27.74Z" transform="translate(-0.16 -2)"/>
  <path class="cls-6" d="M17.43,7.34a.22.22,0,0,0,.16.09h0a.19.19,0,0,0,.16-.09l.77-1.2a.2.2,0,0,0,0-.21L17.8,4.65a.23.23,0,0,0-.17-.1.2.2,0,0,0-.17.09l-.79,1.25a.18.18,0,0,0,0,.21Zm.19-2.22.52.91-.54.84L17.06,6Z" transform="translate(-0.16 -2)"/>
  <path class="cls-6" d="M27.93,17.14l-.81,0a.68.68,0,0,0-.2,0,5.14,5.14,0,0,0-8.18.11,1.37,1.37,0,0,0-.29-.2,3.06,3.06,0,0,0-1.62-.41,2.64,2.64,0,0,0-1.21.33,5.13,5.13,0,0,0-8-.53.41.41,0,0,0-.16,0l-.82,0a.66.66,0,0,0-.67.63v.05a.66.66,0,0,0,.62.68h.16a5.19,5.19,0,1,0,9.85,2.43,5.34,5.34,0,0,0-.33-2h0l0,0,.22-.06h.19l.27,0h0l.12,0,.27.08.1,0,0,0,.13.09,0,0,.11.13v0a.28.28,0,0,0,.05.09s0-.13,0,0v0h0c0,.06,0,.12.07.19a5,5,0,0,0-.25,1.41A5.17,5.17,0,1,0,28,20.57a5.32,5.32,0,0,0-.34-2.08h.19a.65.65,0,0,0,.67-.63v0A.65.65,0,0,0,27.93,17.14Zm-16.69,7a4.17,4.17,0,1,1,4.27-4A4.14,4.14,0,0,1,11.24,24.14Zm11.49.42a4.18,4.18,0,1,1,4.27-4A4.17,4.17,0,0,1,22.73,24.56Z" transform="translate(-0.16 -2)"/>
  <path class="cls-7" d="M14.64,27.56a3.16,3.16,0,0,0,2.37,1,3.09,3.09,0,0,0,2.39-.79h0A3.46,3.46,0,0,0,17.67,27a5,5,0,0,0-3.07.5A.21.21,0,0,0,14.64,27.56Z" transform="translate(-0.16 -2)"/>
  <path class="cls-2" d="M14,25.61a1.25,1.25,0,0,0,.62.64,3.2,3.2,0,0,0,1.19.24,18.7,18.7,0,0,0,3,.07,2.86,2.86,0,0,0,1.12-.29,1.38,1.38,0,0,0,.28-.19,1.86,1.86,0,0,0,0-.36L14,25.49Z" transform="translate(-0.16 -2)"/>
  <path class="cls-1" d="M37.39,18.67a1.84,1.84,0,0,0,.35-1.32,5.36,5.36,0,0,1-.44.86,2.12,2.12,0,0,1-.9.83.92.92,0,0,1-.67.06.51.51,0,0,1-.24-.17.84.84,0,0,0,0,.4c0,.13.18.22.38.25A1.64,1.64,0,0,0,37.39,18.67Z" transform="translate(-0.16 -2)"/>
  <path class="cls-1" d="M38.64,19.52s0,0,0-.05a2.45,2.45,0,0,1-1.13.71,1.24,1.24,0,0,1-.69,0,.76.76,0,0,1-.41-.29l-.24,0a.59.59,0,0,0,.44.67A1.79,1.79,0,0,0,38.64,19.52Z" transform="translate(-0.16 -2)"/>
  <path class="cls-1" d="M39.27,20.83a5.45,5.45,0,0,1-.62.35,1.24,1.24,0,0,1-.74.18.57.57,0,0,1-.44-.35l-.31,0h0c0,.07-.15.23-.12.33s.19.17.42.21A1.66,1.66,0,0,0,39.27,20.83Z" transform="translate(-0.16 -2)"/>
  <path class="cls-1" d="M3,30.62a.34.34,0,0,1,.08-.4c.1-.11.24-.18.35-.29a1.61,1.61,0,0,0,.36-1.1l0-.48a2,2,0,0,0,0-.54.59.59,0,0,0-.31-.41.12.12,0,0,0-.1,0,.21.21,0,0,0-.1.06,2.57,2.57,0,0,1-.76.5.68.68,0,0,1-.48.07A.42.42,0,0,1,2,27.92a1.94,1.94,0,0,0,0,.24c0,.19.11.43.32.47a.61.61,0,0,0,.19,0,.21.21,0,0,1,.1,0A1.21,1.21,0,0,0,3.19,28,.19.19,0,0,1,3.45,28a.2.2,0,0,1,.07.27,1.31,1.31,0,0,1-.19.27h0a1.09,1.09,0,0,1-.43,1.35.51.51,0,0,0-.31.53C2.63,30.54,2.8,30.62,3,30.62Z" transform="translate(-0.16 -2)"/>
  <path class="cls-1" d="M4.23,29a.17.17,0,0,1,.14.14,1.35,1.35,0,0,1-.74,1.48,1.69,1.69,0,0,0-.26.22.32.32,0,0,0,.11.28.55.55,0,0,0,.27.14A.72.72,0,0,1,3.83,31a1.7,1.7,0,0,1,.42-.38,1.75,1.75,0,0,0,.53-.73.85.85,0,0,0,0-.54A.45.45,0,0,0,4.23,29Z" transform="translate(-0.16 -2)"/>
  <path class="cls-8" d="M27,28.94c-.47.2-1,.33-1.44.53s-1.14.57-1.71.85a18.47,18.47,0,0,1-4.51,1.28,9,9,0,0,1-3.14.23A8.4,8.4,0,0,1,13.81,31a12,12,0,0,1-3.27-2.26,13.93,13.93,0,0,1-2-3.08,17.83,17.83,0,0,1-1.1-2.29,5.25,5.25,0,0,1-.7-5.59H6.55a.66.66,0,0,1-.62-.68V17a.66.66,0,0,1,.67-.63l.82,0a.41.41,0,0,1,.16,0A4.26,4.26,0,0,1,8,16a15.82,15.82,0,0,1,1.1-3A7.77,7.77,0,0,1,11.9,9.83c-2.54,1.07-4.82,2.48-5.67,5.28a23.47,23.47,0,0,1-1.23,3c-1,2.21-1.92,4.11-.63,6.55.46.88.86,1.83,1.24,2.75,1.16,2.81,2.25,5.46,5.2,5.75a21.32,21.32,0,0,1,4.11.92c2.16.65,4,1.2,5.83.22a19.77,19.77,0,0,1,2.92-1.18c2.48-.85,5-1.73,5.13-4.25A7.41,7.41,0,0,1,29,27.49,6.24,6.24,0,0,1,27,28.94Z" transform="translate(-0.16 -2)"/>
  <path class="cls-6" d="M11.91,27.26a2.76,2.76,0,0,0-1-.63,1.35,1.35,0,0,0-.34-.11.94.94,0,0,0-.42-.09.93.93,0,0,0-.76,1.37,2.19,2.19,0,0,0,.86.9,1.25,1.25,0,0,0,1.37.15A1.06,1.06,0,0,0,11.91,27.26Z" transform="translate(-0.16 -2)"/>
  <path class="cls-6" d="M14.55,31.87l-.06,0a1.13,1.13,0,0,1-.2-.13l-.1-.05a.8.8,0,0,0-.34-.11.57.57,0,0,0-.42.15.71.71,0,0,0-.19.41.84.84,0,0,0,.26.64,1.3,1.3,0,0,0,.51.32.66.66,0,0,0,.54-1.19Z" transform="translate(-0.16 -2)"/>
  <path class="cls-6" d="M23.49,29.69a1.12,1.12,0,0,0-.48,0h0A1.49,1.49,0,0,0,22,30a1.09,1.09,0,0,0-.57,1.17c.25,1,1.43.83,2.14.53a1.12,1.12,0,0,0,.72-1A1.09,1.09,0,0,0,23.49,29.69Z" transform="translate(-0.16 -2)"/>
  <path class="cls-6" d="M25.93,28.38a.59.59,0,0,0-.52-.43,1,1,0,0,0-.41.11.54.54,0,0,0-.29.47v.1a.33.33,0,0,0,.06.19.38.38,0,0,0,.08.11h0l.07.06h0a.51.51,0,0,0,.24.1.53.53,0,0,0,.28,0h0a.73.73,0,0,0,.22-.09.58.58,0,0,0,.24-.25A.56.56,0,0,0,25.93,28.38Z" transform="translate(-0.16 -2)"/>
  <path class="cls-6" d="M17.06,33.17a.45.45,0,0,0-.21-.2.53.53,0,0,0-.24-.06.45.45,0,0,0-.45.22.36.36,0,0,0,0,.44.46.46,0,0,0,.29.15h-.06l.15,0a.45.45,0,0,0,.23,0,.37.37,0,0,0,.26-.21A.36.36,0,0,0,17.06,33.17Z" transform="translate(-0.16 -2)"/>
  <path class="cls-6" d="M6.33,23.57a1.1,1.1,0,0,0,0-.18.87.87,0,0,0-.56-.59.71.71,0,0,0-.88.46,1,1,0,0,0,.33,1.18.85.85,0,0,0,.42.08A.64.64,0,0,0,6,24.45.71.71,0,0,0,6.33,23.57Z" transform="translate(-0.16 -2)"/>
  <path class="cls-6" d="M7,24.93a.48.48,0,0,0-.24-.07.34.34,0,0,0-.22.05l-.05,0a.23.23,0,0,0-.09.08l0,0a.44.44,0,0,0,0,.47l0,0,.06.1a.45.45,0,0,0,.14.1.27.27,0,0,0,.12,0,.28.28,0,0,0,.18,0,.56.56,0,0,0,.2-.11.47.47,0,0,0,.14-.32v0A.49.49,0,0,0,7,24.93Z" transform="translate(-0.16 -2)"/>
  <path class="cls-6" d="M11.74,11.32a.67.67,0,0,0-.5-.05.93.93,0,0,0-.75.47,1.08,1.08,0,0,0-.18.24.91.91,0,0,0-.17.68.38.38,0,0,0,.16.27.62.62,0,0,0,.81.24,2.81,2.81,0,0,0,.78-.64A.76.76,0,0,0,11.74,11.32Z" transform="translate(-0.16 -2)"/>
  <path class="cls-6" d="M13.38,12.4a.36.36,0,0,0-.56-.09.49.49,0,0,0-.13.31.41.41,0,0,0,.12.31.34.34,0,0,0,.54,0A.48.48,0,0,0,13.38,12.4Z" transform="translate(-0.16 -2)"/>
  <path class="cls-6" d="M24.31,12.84a.52.52,0,0,0-.42-.27.61.61,0,0,0-.45.16.75.75,0,0,0-.18.31.46.46,0,0,0,.07.41.42.42,0,0,0,.36.2h.16a.59.59,0,0,0,.31-.14l0,0h0l0-.05,0,0h0a.05.05,0,0,0,0,0A.47.47,0,0,0,24.31,12.84Z" transform="translate(-0.16 -2)"/>
  <path class="cls-6" d="M26.7,13.76a.78.78,0,0,0-.53-.25H26a.76.76,0,0,0-.42.09.57.57,0,0,0-.31.45.6.6,0,0,0,.15.53l0,0a.08.08,0,0,0,0,0,.79.79,0,0,0,.36.34.78.78,0,0,0,.5.05.77.77,0,0,0,.47-.34A.8.8,0,0,0,26.7,13.76Z" transform="translate(-0.16 -2)"/>
  <path class="cls-6" d="M17.68,14.15a.82.82,0,0,0-.6-.27,2,2,0,0,0-.34,0h-.15a.72.72,0,0,0-.68.49.71.71,0,0,0,.29.8,1.6,1.6,0,0,0,.71.22.86.86,0,0,0,.93-.58A.73.73,0,0,0,17.68,14.15Z" transform="translate(-0.16 -2)"/>
  <path class="cls-6" d="M19.58,12.69a.58.58,0,0,0-.44-.33.65.65,0,0,0-.34,0,.62.62,0,0,0-.28.17.44.44,0,0,0-.15.39.48.48,0,0,0,.22.36l-.05,0a.67.67,0,0,0,.19.14l.16.06h0a.47.47,0,0,0,.17,0l.19,0a.48.48,0,0,0,.34-.28A.55.55,0,0,0,19.58,12.69Z" transform="translate(-0.16 -2)"/>
  <path class="cls-6" d="M29.45,22.78a.57.57,0,0,0-.63-.32.74.74,0,0,0-.5.93.56.56,0,0,0,.4.44,1.05,1.05,0,0,0,.24,0,1,1,0,0,0,.23-.07.61.61,0,0,0,.31-.52A.75.75,0,0,0,29.45,22.78Z" transform="translate(-0.16 -2)"/>
  <path class="cls-1" d="M30.16,19.57a33.85,33.85,0,0,1-1.39-3.32c-1-2.77-1.93-5.17-4.29-5.34a10.36,10.36,0,0,1-3.62-1.19C19,8.81,17,7.88,14.17,8.94c-.67.25-1.33.5-2,.77A12.37,12.37,0,0,1,18,9.46c1.76.48,3.26,1.71,5,2.13,1.15.27,2.46.24,3.35,1,1.13,1,1,2.83,1.9,4.07a6.81,6.81,0,0,1,.7,1c.22.46.21,1,.41,1.48s.66.93.92,1.45a4.35,4.35,0,0,1,.28,2.06c0,.22,0,.44,0,.66A4.73,4.73,0,0,0,30.16,19.57Z" transform="translate(-0.16 -2)"/>
  <g>
    <path class="cls-8" d="M16,30.23a.9.9,0,0,0-.82-.62.65.65,0,0,0-.51.05.67.67,0,0,0-.33.39.69.69,0,0,0,.44.85s.24.11,0,0a1.82,1.82,0,0,0,.35.12,1.07,1.07,0,0,0,.31,0,.76.76,0,0,0,.32-.17A.66.66,0,0,0,16,30.23Z" transform="translate(-0.16 -2)"/>
    <path class="cls-8" d="M15.23,31h0l-.09,0Z" transform="translate(-0.16 -2)"/>
    <path class="cls-8" d="M15.23,31h0Z" transform="translate(-0.16 -2)"/>
  </g>
  <path class="cls-8" d="M19.23,29.58a.51.51,0,0,0-.29-.25l-.17,0a.54.54,0,0,0-.7.5.55.55,0,0,0,.14.39.56.56,0,0,0,.52.16l.17,0,.12,0a.44.44,0,0,0,.15-.12.5.5,0,0,0,.12-.31A.54.54,0,0,0,19.23,29.58Z" transform="translate(-0.16 -2)"/>
  <path class="cls-8" d="M27.85,25.26a.65.65,0,0,0-.79-.13,1.24,1.24,0,0,0-.34.31l-.11.15a.46.46,0,0,0,.14.64,1.23,1.23,0,0,0,.6.14.69.69,0,0,0,.47-.18.65.65,0,0,0,.2-.45A.74.74,0,0,0,27.85,25.26Z" transform="translate(-0.16 -2)"/>
  <path class="cls-8" d="M16.12,10.44A1.09,1.09,0,0,0,15,10.9a.57.57,0,0,0,.45.86,1.4,1.4,0,0,0,.41-.06s.19,0,0,0a1,1,0,0,0,.41-.11A.63.63,0,0,0,16.12,10.44Z" transform="translate(-0.16 -2)"/>
  <g>
    <path class="cls-8" d="M9.8,14.4h0S9.8,14.42,9.8,14.4Z" transform="translate(-0.16 -2)"/>
    <path class="cls-8" d="M9.8,14.4h0C9.81,14.31,9.81,14.37,9.8,14.4Z" transform="translate(-0.16 -2)"/>
    <path class="cls-8" d="M9.77,14.19a.3.3,0,0,0-.12-.13A.36.36,0,0,0,9.36,14,.41.41,0,0,0,9,14.3a.36.36,0,0,0,.23.44.42.42,0,0,0,.27,0,.45.45,0,0,0,.17-.11.37.37,0,0,0,.12-.22v0A.25.25,0,0,0,9.77,14.19Z" transform="translate(-0.16 -2)"/>
  </g>
  <path class="cls-8" d="M21.17,14.33A.47.47,0,0,0,20.6,14a.49.49,0,0,0-.4.28.33.33,0,0,0,.1.43h0a.38.38,0,0,0,.15.09.91.91,0,0,0,.23,0A.45.45,0,0,0,21.17,14.33Z" transform="translate(-0.16 -2)"/>
  <path class="cls-8" d="M17.17,23.81l-.1-.08a.47.47,0,0,0-.26-.08H16.7a.54.54,0,0,0-.4.15.52.52,0,0,0,0,.72.55.55,0,0,0,.39.18h.12a.57.57,0,0,0,.37-.14.54.54,0,0,0,.16-.36A.53.53,0,0,0,17.17,23.81Z" transform="translate(-0.16 -2)"/>
  <path class="cls-8" d="M9.63,25.77a.88.88,0,0,0-.23-.24.41.41,0,0,0-.24-.08.39.39,0,0,0-.3.12.38.38,0,0,0-.11.35.93.93,0,0,0,0,.13.46.46,0,0,0,.18.16H9l0,0v0a.4.4,0,0,0,.28.12.44.44,0,0,0,.24-.07.47.47,0,0,0,.15-.21A.42.42,0,0,0,9.63,25.77Z" transform="translate(-0.16 -2)"/>
  <path class="cls-3" d="M10.09,30.83a.91.91,0,0,0-.28-.46l-.09-.07-.12-.12a.83.83,0,0,0-.29-.24.68.68,0,0,0-.69,0,.67.67,0,0,0-.35.57,1,1,0,0,0,.09.5,1.73,1.73,0,0,0,.22.31,1,1,0,0,0,.77.44.75.75,0,0,0,.59-.27A.74.74,0,0,0,10.09,30.83Z" transform="translate(-0.16 -2)"/>
  <path class="cls-3" d="M11.85,30.77a.39.39,0,0,0-.23-.3.28.28,0,0,0-.18-.06.37.37,0,0,0-.18,0,.34.34,0,0,0-.18.21h0a.4.4,0,0,0,0,.24.49.49,0,0,0,.14.18.4.4,0,0,0,.38.07.29.29,0,0,0,.2-.14l0-.07A.37.37,0,0,0,11.85,30.77Z" transform="translate(-0.16 -2)"/>
  <path class="cls-3" d="M20.57,32.88a.6.6,0,0,0-.25-.19.6.6,0,0,0-.46.05.44.44,0,0,0-.22.41.45.45,0,0,0,.29.37.61.61,0,0,0,.46,0,.5.5,0,0,0,.21-.22A.32.32,0,0,0,20.57,32.88Z" transform="translate(-0.16 -2)"/>
  <path class="cls-3" d="M27.06,30.71a.37.37,0,0,0,0-.18.44.44,0,0,0-.29-.24.58.58,0,0,0-.32,0,.56.56,0,0,0-.24.13,1.13,1.13,0,0,0-.1.13.52.52,0,0,0,.41.8.56.56,0,0,0,.41-.15.55.55,0,0,0,.15-.24l0,0A.44.44,0,0,0,27.06,30.71Z" transform="translate(-0.16 -2)"/>
  <g>
    <path class="cls-1" d="M18.89,19.26l.93-.52,2.6-1.44c.53-.3,1.06-.61,1.58-.94a4.55,4.55,0,0,0-1-.15,2.81,2.81,0,0,0-.41,0l-.88.51c-.77.46-1.55.89-2.32,1.37A4.51,4.51,0,0,0,18.89,19.26Z" transform="translate(-0.16 -2)"/>
    <path class="cls-1" d="M23.41,19.23,26,17.68a4.06,4.06,0,0,0-1.25-1L22.62,18c-1.27.79-2.63,1.53-3.88,2.39A4.2,4.2,0,0,0,19,21.82C20.52,21.06,22,20.09,23.41,19.23Z" transform="translate(-0.16 -2)"/>
  </g>
  <path class="cls-6" d="M12.53,20c0,.88-.56,1.58-1.18,1.56s-1.1-.76-1.07-1.64.56-1.59,1.18-1.57S12.56,19.07,12.53,20Z" transform="translate(-0.16 -2)"/>
  <path class="cls-6" d="M24.18,20.38c0,.88-.56,1.58-1.18,1.56s-1.11-.76-1.08-1.64.57-1.59,1.19-1.57S24.21,19.49,24.18,20.38Z" transform="translate(-0.16 -2)"/>
  <path class="cls-2" d="M11.44,18.64a.76.76,0,0,0-.15-.28l-.13-.1a.57.57,0,0,0-.31-.1.49.49,0,0,0-.24,0,.57.57,0,0,0-.21.13.39.39,0,0,0-.13.2.4.4,0,0,0-.07.24l0,.17a.69.69,0,0,0,.15.28l.12.11a.59.59,0,0,0,.32.09.51.51,0,0,0,.24,0,.57.57,0,0,0,.21-.13.46.46,0,0,0,.13-.2.48.48,0,0,0,.06-.24Z" transform="translate(-0.16 -2)"/>
  <path class="cls-2" d="M23.08,19.06a.55.55,0,0,0-.15-.28l-.12-.1a.52.52,0,0,0-.31-.1.53.53,0,0,0-.25,0,.63.63,0,0,0-.2.13.48.48,0,0,0-.14.2.48.48,0,0,0-.06.24l0,.17a.55.55,0,0,0,.15.28l.12.1a.6.6,0,0,0,.31.1.47.47,0,0,0,.24,0,.57.57,0,0,0,.21-.13.48.48,0,0,0,.14-.2.48.48,0,0,0,.06-.24Z" transform="translate(-0.16 -2)"/>
  <g>
    <polygon class="cls-1" points="13.04 2.74 13.15 3.29 15.33 3.94 13.04 2.74"/>
    <path class="cls-1" d="M20.77,9.24l.26.12.18.09.95-4.71L21.69,5C21.58,5.49,21.06,7.83,20.77,9.24Z" transform="translate(-0.16 -2)"/>
    <polygon class="cls-1" points="17.45 0.6 17.21 1.01 19.3 3.98 17.45 0.6"/>
    <path class="cls-1" d="M19.64,6.11a.18.18,0,0,1-.12-.05l.06.08Z" transform="translate(-0.16 -2)"/>
  </g>
  <path class="cls-3" d="M13.74,7.49,14,8.6l.07,0c2.86-1.07,4.85-.23,6.74.67C19.14,7.16,15,7.37,13.74,7.49Z" transform="translate(-0.16 -2)"/>
</svg>
